<?xml version="1.0" encoding="utf-8"?>
<!-- Generator: Adobe Illustrator 22.0.0, SVG Export Plug-In . SVG Version: 6.00 Build 0)  -->
<svg version="1.1" id="Layer_1" xmlns="http://www.w3.org/2000/svg" xmlns:xlink="http://www.w3.org/1999/xlink" x="0px" y="0px"
	 viewBox="0 0 1366 768" style="enable-background:new 0 0 1366 768;" xml:space="preserve">
<style type="text/css">
	.st0{fill:#495151;}
	.st1{fill:none;stroke:#663300;stroke-width:5;stroke-linecap:round;stroke-linejoin:round;stroke-miterlimit:10;}
	.st2{fill:#663300;stroke:#663300;stroke-width:0.25;stroke-linecap:round;stroke-linejoin:round;stroke-miterlimit:10;}
	.st3{fill:#C28100;}
	.st4{stroke:#000000;stroke-width:5;stroke-miterlimit:10;}
	.st5{fill:none;stroke:#000000;stroke-width:5;stroke-miterlimit:10;}
	.st6{fill:#996500;}
	.st7{fill:none;stroke:#663300;stroke-miterlimit:10;}
	.st8{fill:#A36700;}
	.st9{fill:none;stroke:#A36700;stroke-width:5;stroke-linecap:round;stroke-linejoin:round;stroke-miterlimit:10;}
	.st10{fill:#6B5809;stroke:#6B5809;stroke-width:5;stroke-linecap:round;stroke-linejoin:round;stroke-miterlimit:10;}
	.st11{fill:#663300;}
	.st12{fill:#663300;stroke:#663300;stroke-width:5;stroke-linecap:round;stroke-linejoin:round;stroke-miterlimit:10;}
	.st13{fill:#FF9700;stroke:#FF9700;stroke-miterlimit:10;}
	.st14{fill:#FFE200;}
	.st15{fill:#E0DCAF;}
	.st16{fill:none;}
	.st17{font-family:'Sketch3D';}
	.st18{font-size:72px;}
</style>
<path class="st0" d="M15,768h1336c8.3,0,15-6.8,15-15V15c0-8.3-6.8-15-15-15H15C6.8,0,0,6.8,0,15v738C0,761.3,6.8,768,15,768z"/>
<path class="st1" d="M0,405.7"/>
<path class="st1" d="M-68.1,406.6"/>
<path d="M360.7,381.5c31.6-3,88.5,1.6,42.4,29.5c-56.8,34.3-99.8,2.4-96.9,0.1C306.1,411.1,302.2,390.8,360.7,381.5z"/>
<g>
	<path class="st2" d="M913.8,403.6v92.7c0,62.5-41.7,113.7-92.7,113.7h-48.5c-51,0-92.7-51.2-92.7-113.7l-0.9-92.7"/>
	<g>
		<path class="st3" d="M797.9,449.1c-27.8,0-56.6-4.9-79.2-13.4c-24.6-9.3-38.1-21.6-38.1-34.7c0-28.1,62-49.1,117.4-49.1
			c54.1,0,114.6,21.4,114.6,50c0,0.7,0,1.5-0.1,2.2c-2.5,21.8-38.8,35.7-72,41.4l0,0C826.4,447.9,812.1,449.1,797.9,449.1z"/>
		<path class="st3" d="M797.9,354.4c55.7,0,112.1,22,112.1,47.5c0,0.7,0,1.3-0.1,2c-2.1,18-32.4,32.7-69.9,39.2h0
			c-13.4,2.3-27.8,3.6-42.1,3.6c-55.7,0-114.9-20.2-114.9-45.7C683,375.5,742.1,354.4,797.9,354.4 M797.9,349.4
			c-27.9,0-57.1,5.1-80.1,14.1c-25.6,10-39.7,23.3-39.7,37.5c0,14.2,14.1,27.4,39.8,37.1c22.8,8.6,52,13.6,80.1,13.6
			c14.4,0,28.9-1.2,43-3.7l0,0c34.1-5.9,71.4-20.4,74-43.6c0.1-0.8,0.1-1.7,0.1-2.5c0-14.3-13.6-27.7-38.3-37.9
			C854.3,354.7,825.5,349.4,797.9,349.4L797.9,349.4z"/>
	</g>
	<ellipse class="st4" cx="796" cy="397.8" rx="67" ry="23.7"/>
	<path class="st5" d="M899.1,402.3"/>
	<path class="st5" d="M696.6,401"/>
	<path class="st5" d="M683,403.8"/>
	<g>
		<path class="st6" d="M893.4,560.7c-19.2-0.3-23.3-8.3-26.4-17.9c-1.6-4.9-2.4-10.3-2.4-15.8v-69.6c0-4.5-2.2-8.4-5.7-11
			c8.4-2.1,17-5.1,26.2-9.3c0.8-0.4,1.6-0.7,2.4-1.1c5.8-2.6,11.3-5.1,15.1-8.9c3-3.1,6-6.3,8.2-9l0.3,14l0,74.5l-2.8,17.3
			c0,0.1,0,0.3,0,0.4C908.4,537.4,900.5,551.9,893.4,560.7z"/>
		<path class="st6" d="M908.6,424.5l0.2,7.5V460v46.4l-2.8,17.1c0,0.3-0.1,0.5-0.1,0.8c0,12-7.1,25.3-13.7,33.9
			c-16.5-0.6-19.9-7.1-22.8-16.1c-1.5-4.7-2.3-9.8-2.3-15.1v-69.6c0-3.7-1.2-7-3.3-9.7c7.2-2,14.6-4.8,22.3-8.3
			c0.8-0.4,1.6-0.7,2.4-1.1c6-2.7,11.7-5.2,15.9-9.4C905.8,427.5,907.2,426,908.6,424.5 M913.3,409.8
			C913.3,409.8,913.3,409.8,913.3,409.8l0,0.8C913.5,410.1,913.5,409.8,913.3,409.8L913.3,409.8z M913.3,410.6
			c-1,2.1-6.1,8.5-12.4,14.7c-4,4-10.4,6.6-16.8,9.5c-10.3,4.7-22.2,9-34.9,11c7.1,0,12.9,5,12.9,11.6V527c0,5.6,0.8,11.2,2.5,16.6
			c3.7,11.7,9.4,19.6,29.9,19.6c8.2-9.8,16.3-25.3,16.3-38.9l2.9-17.5V460v-28l-0.4-15.3L913.3,410.6L913.3,410.6z"/>
	</g>
	<path class="st5" d="M844.6,447.5"/>
	<line class="st7" x1="904.8" y1="610" x2="904.8" y2="610"/>
	<path class="st1" d="M898.2,375.7"/>
	<g>
		<g id="XMLID_2_">
			<g>
				<path class="st8" d="M688,482.2c0,0,47,30.9,45.6,38.8c-22.5,10.6-62.2,13.8-78.4-6c-0.2-0.3-0.4-0.6-0.6-0.9
					C605.7,433.8,502.1,411,409.1,401.4c-6.6-0.7-11.4-4.5-11.3-8.9c0.1-2.4,1.6-4.5,4.1-6c2.5-1.5,5.8-2.4,9.5-2.6
					c115-5.9,178.3,17.8,252.5,88.1c0.6,0.5,1.3,1,1.9,1.5C668.8,475.7,677.7,482.2,688,482.2z"/>
			</g>
			<g>
				<path class="st9" d="M733.6,521c-22.5,10.6-62.2,13.8-78.4-6c-0.2-0.3-0.4-0.6-0.6-0.9C605.7,433.8,502.1,411,409.1,401.4
					c-6.6-0.7-11.4-4.5-11.3-8.9c0.1-2.4,1.6-4.5,4.1-6c2.5-1.5,5.8-2.4,9.5-2.6c115-5.9,178.3,17.8,252.5,88.1
					c0.6,0.5,1.3,1,1.9,1.5c3,2.1,11.9,8.7,22.1,8.7C688,482.2,735,513.2,733.6,521z"/>
			</g>
		</g>
	</g>
	<path class="st10" d="M405.6,394.8l22.5,0.8c0,0,164.3,22.1,113.5-0.3c-19.3-8.5-83.3-16.3-136.1-11.9"/>
	<g>
		<g id="XMLID_1_">
			<g>
				<path class="st11" d="M660.4,527C610.5,443.4,498,420.8,402.9,410.8c-6.7-0.7-5.2-5.8-5.1-10.4c0.2-5,6.2-9,13.6-9
					c0.1,0,0.2,0,0.3,0c120,1.8,185.3,28.5,258.2,91.8c0.6,0.5,1.3,1.1,2,1.6c3.1,2.2,12.2,9,22.7,9c0,0,89.4-4.6,126.5,113.9
					c-86.6,4.7-113.4-21.4-160-79.8C660.8,527.6,660.6,527.3,660.4,527z"/>
			</g>
			<g>
				<path class="st1" d="M821,607.7c-86.6,4.7-113.4-21.4-160-79.8c-0.2-0.3-0.4-0.6-0.6-0.9C610.5,443.4,498,420.8,402.9,410.8
					c-6.7-0.7-5.2-5.8-5.1-10.4c0.2-5,6.2-9,13.6-9c0.1,0,0.2,0,0.3,0c120,1.8,185.3,28.5,258.2,91.8c0.6,0.5,1.3,1.1,2,1.6
					c3.1,2.2,12.2,9,22.7,9C694.6,493.8,784,489.2,821,607.7z"/>
			</g>
		</g>
	</g>
	<path class="st12" d="M922,570.8"/>
	<ellipse class="st13" cx="401.1" cy="397.8" rx="7.8" ry="14.7"/>
	<path class="st14" d="M409,392c2,6.3-1.8,9.2-7.8,9.2c-7.2,0-9.6-2.8-7.8-9.2c1.4-4.9,3.5-9.7,7.8-9.7S407.4,387.1,409,392z"/>
</g>
<path class="st15" d="M808.5,340.5C801,335,813,332,839.9,312c-1.4-22.5-31.4-24-31.4-24s-86.6-7.5-81.5-27s2-18,27.5-46.5
	s57-19.5,57-19.5s36.3,1.5,57.9-22.5c21.6-24,75.9-30,72.7-7.5c-3.2,22.5-39.2,39-39.2,39s94.5,12,63,24
	c-31.5,12-101.4,22.5-100.9,12c0.5-10.5-38,25.5,0,39c38,13.5,10.8,29,4.4,31.5C863,313,816,346,808.5,340.5z"/>
<rect x="881.1" y="624.1" class="st16" width="442.5" height="114"/>
<text transform="matrix(1 0 0 1 881.0801 679.9648)" class="st17 st18">Phunk de... </text>
</svg>
